<svg id="Camada_1" data-name="Camada 1" xmlns="http://www.w3.org/2000/svg" viewBox="0 0 841.89 595.28"><defs><style>.cls-1{fill:#f4e631;}.cls-2{fill:#1b70ed;}.cls-3{fill:#33bbd1;}.cls-4{fill:#4cc8e5;}.cls-5{fill:#726e6e;}.cls-6{fill:#471f04;}</style></defs><title>logo elo</title><path class="cls-1" d="M710,344.91q-9.18,4.3-18.34,8.67a39.85,39.85,0,0,0,3.69-8.14c2.42-7.54-4.44-15.36-11.73-15.65a9.91,9.91,0,0,0-.18-1.09c11.18-6.31,22.1-13,30.79-22.68,9.44-10.5-2.3-25.41-14.83-19.23l-51,25.14a26.85,26.85,0,0,0,5.25-8.46c7-4.53,13.92-9.2,20.67-14.09,12.5-9.05,1.24-29.68-12.35-21.13q-12.88,8.1-26.15,15.48c2.87-7.08-3.81-16-11.65-16.59,1.32-5.19-1.17-11.57-5.73-14.08-8.43-4.64-16-2.14-24.78.48q-17.31,5.18-34.19,11.63A524.7,524.7,0,0,0,496.85,294c-9.48,5.14-7.05,15.56-.19,20.09-8.32,4-16.59,8-24.72,12.22s-7,15-1.45,20.25c-6.4,9.19,4.23,23.35,16.44,17.42C495,360.09,503,356.1,511,352.12a12.55,12.55,0,0,0,2.59,5.34c-7.43,4.85-14.77,9.81-22,15-12.59,9-1.4,29.4,12.36,21.14l24.52-14.74a12.68,12.68,0,0,0-.24,5c-6.41,4.82-12.81,9.64-19.15,14.54-10.05,7.76-4.66,22.74,5.62,23A13,13,0,0,0,519,427l-.31.24c-10.55,8.92,3.31,27,14.84,19.22l.35-.23c2.15,6.88,10.33,12.17,18,7.67l14.31-8.45c2.68,6,9.82,10.38,17.46,6.73,3.32-1.59,6.66-3.13,10-4.69-8.9,9.69,1.2,26.08,14.53,19.18,3.25-1.68,6.44-3.45,9.6-5.25a12.37,12.37,0,0,0,13,1.24,138.34,138.34,0,0,0,47.66-36.86c4.69-5.65,4-12,.55-16.12a52.48,52.48,0,0,0,2.8-6,9.09,9.09,0,0,0,.53-4.66c15.75-9.71,30.71-20.64,42.64-34.93C733.87,353.35,722.85,338.89,710,344.91Z"/><path class="cls-2" d="M139.78,462.74q-43.56,0-69.5-20.22T44.34,383.38a103.63,103.63,0,0,1,3.11-24.63,85.66,85.66,0,0,1,8.82-22.57q22.83-39.4,51.09-58.09t60.43-18.68q25.94,0,39.42,11.41a36.42,36.42,0,0,1,13.49,29.05q0,18.67-13.23,32.68t-35,21.53a145.47,145.47,0,0,1-47.72,7.52q-19.2,0-31.64-4.67T80.65,346.55q0-4.67,4.41-8.55t8.56-3.89q5.7,0,12.45,4.15a48.08,48.08,0,0,0,13.22,5.7q7.51,2.09,21,2.08,24.38,0,39.42-10.63t15-29.83a26.89,26.89,0,0,0-9.59-21.27Q175.56,276,159,276a85.39,85.39,0,0,0-46.43,13.23A99.25,99.25,0,0,0,79.09,324a92.14,92.14,0,0,0-12.44,46.94q0,34.24,20.49,52.91t56.79,18.68q55,0,89-28.53t57.83-77.81q3.11-5.7,7.26-5.7c2.42,0,3.64,1.21,3.64,3.63a16.76,16.76,0,0,1-2.08,7.26q-17.64,36.31-39.42,63.54a160.71,160.71,0,0,1-50.84,42.53Q180.24,462.74,139.78,462.74Z"/><path class="cls-2" d="M385.75,441.58q27,0,49.27-12.18A141.86,141.86,0,0,0,474.7,397,215.12,215.12,0,0,0,504,352.89c2.07-3.8-5.49,2-2.72,2,2.42,0,3.14,4.2,3.14,6.61,0,2.08,1.37,4.55,0,7.31-15.91,32.51-26.45,48-48.4,67.84s-47.81,29.82-77.55,29.82q-34.75,0-60.42-23.86T278.37,373.9q-14-44.86-14-107.63,0-63.81,15-108.93t38.12-69q23.09-23.85,45.91-23.87,34.23,0,34.24,51.36,0,20.75-9.6,49a540.24,540.24,0,0,1-24.64,59.65q-15,31.4-32.16,62.51t-32.16,56.53q9.35,44.1,30.35,71.07T385.75,441.58ZM289.79,246q0,21.78,1.55,42.53T296,328.51q18.15-33.7,36.31-71.06a617.78,617.78,0,0,0,30.09-72.88q11.91-35.52,11.93-63,0-16.59-5.19-25.93t-16.08-9.34q-14.54,0-29.05,16.08t-24.38,51.35Q289.78,189,289.79,246Z"/><path class="cls-2" d="M492.87,371a84.68,84.68,0,0,1,1.55-18.15q1.56-7.78,6.23-7.78t5.7,8.82a147.93,147.93,0,0,0,11.15,37.86A83.85,83.85,0,0,0,544,425.25q17.89,13.74,48,13.74,39.93,0,62.76-23.34t22.82-57.57q0-33.7-19.71-56.8T598.16,278.2q-28,0-43.31,10.11t-23.6,18.42q-9.33,9.33-12.45,9.33c-2.42,0-3.63-1.2-3.63-3.63q0-4.67,6.22-13.48t18.68-18.42a118.29,118.29,0,0,1,30.08-16.34q17.63-6.74,39.94-6.74,41.49,0,66.39,24.64t24.9,63.54q0,32.16-16.08,58.61a120,120,0,0,1-42.79,42,114.88,114.88,0,0,1-58.87,15.56,99.55,99.55,0,0,1-45.13-10.38,80.25,80.25,0,0,1-33.19-30.86Q492.87,400.09,492.87,371Z"/><circle class="cls-2" cx="581.54" cy="341.86" r="6.29"/><circle class="cls-2" cx="612.71" cy="341.86" r="6.29"/><path class="cls-2" d="M597.12,386.22c-33.81,0-53-21.74-53.83-22.66a2.52,2.52,0,1,1,3.8-3.3c.19.21,18.6,20.92,50,20.92s49.85-20.71,50-20.92a2.52,2.52,0,0,1,3.81,3.3C650.16,364.48,630.93,386.22,597.12,386.22Z"/><polygon class="cls-2" points="645.38 363.48 646.88 365.24 648.39 367 689.91 348.72 679.92 337.02 669.92 325.32 645.38 363.48"/><path class="cls-3" d="M670.88,317.33a6.09,6.09,0,0,1,8.55.9l19,22.21A6.09,6.09,0,0,1,698,349h0a6.08,6.08,0,0,1-8.55-.89l-19-22.22a6.09,6.09,0,0,1,.45-8.58Z"/><rect class="cls-2" x="804.3" y="209.07" width="8.83" height="35.86" rx="2.12" transform="translate(46.38 579.69) rotate(-40.51)"/><rect class="cls-4" x="668.7" y="259.44" width="155.26" height="41.69" transform="translate(-3.18 551.94) rotate(-40.51)"/><rect class="cls-5" x="695.42" y="299.77" width="7.42" height="41.69" transform="translate(-40.69 530.94) rotate(-40.51)"/><rect class="cls-5" x="790.5" y="218.54" width="7.42" height="41.69" transform="translate(34.86 573.24) rotate(-40.51)"/><path class="cls-6" d="M48.89,521.88V491.13h9.53c7.09,0,13.73,5.3,13.73,15.46,0,10.34-6.64,15.29-13.73,15.29Zm9.53-1.16c6.46,0,12.48-4.64,12.48-14.13s-6-14.3-12.48-14.3H50.13v28.43Z"/><path class="cls-6" d="M77.4,506.63c0-11.58,8-15.95,15.15-15.95s15.2,4.37,15.2,15.95c0,9.63-6.06,15.74-15.24,15.74S77.4,516.26,77.4,506.63Zm29.15,0c0-10.33-7.35-14.79-14-14.79s-13.94,4.46-13.94,14.79c0,8.56,5.57,14.58,13.9,14.58S106.55,515.19,106.55,506.63Z"/><path class="cls-6" d="M135,521.88c-1.11-3.39-2.18-6.64-3.34-9.94H115.9c-1.16,3.3-2.27,6.55-3.34,9.94h-1.34a221.17,221.17,0,0,1,12-30.75h1.16a219.25,219.25,0,0,1,12,30.75Zm-18.76-11.06h15a190.56,190.56,0,0,0-7.49-18C120.76,499.15,118.4,505,116.26,510.82Z"/><path class="cls-6" d="M148.25,528.6a10.74,10.74,0,0,0,3,.9c2.32.26,3.57-1.12,3.57-2.81a8.31,8.31,0,0,0-2-4.5c-7-.94-13.11-6.28-13.11-15.6,0-10.2,7.22-15.91,15.38-15.91a37.28,37.28,0,0,1,7.62.67v1.29a39.28,39.28,0,0,0-7.62-.71c-7.49,0-14.13,5.26-14.13,14.66,0,9.58,7,14.53,14.26,14.53a29.17,29.17,0,0,0,7.49-.8v1.33a35.72,35.72,0,0,1-7.49.72,5.32,5.32,0,0,1-.89,0,12.33,12.33,0,0,1,1.47,2.85c.85,3.12-.89,6-4.72,5.57a9.51,9.51,0,0,1-2.9-.8Z"/><path class="cls-6" d="M189.56,521.88c-1.12-3.39-2.19-6.64-3.34-9.94H170.44c-1.16,3.3-2.27,6.55-3.34,9.94h-1.34a221.17,221.17,0,0,1,12-30.75h1.16a219.25,219.25,0,0,1,12,30.75ZM170.8,510.82h15a190.56,190.56,0,0,0-7.49-18C175.3,499.15,172.94,505,170.8,510.82Zm2.63-25.08a2.71,2.71,0,0,1,3.07-2.59c2.23,0,4.68,3.21,5.44,0h1.25c-.36,2.05-1.3,2.58-2.41,2.58a5.29,5.29,0,0,1-2.45-.76,6.84,6.84,0,0,0-1.83-.66,1.67,1.67,0,0,0-1.87,1.47Z"/><path class="cls-6" d="M194.37,506.63c0-11.58,8-15.95,15.15-15.95s15.2,4.37,15.2,15.95c0,9.63-6.06,15.74-15.24,15.74S194.37,516.26,194.37,506.63Zm29.14,0c0-10.33-7.35-14.79-14-14.79s-14,4.46-14,14.79c0,8.56,5.57,14.58,13.91,14.58S223.51,515.19,223.51,506.63Z"/><path class="cls-6" d="M242.14,521.88V491.13h9.53c7.09,0,13.73,5.3,13.73,15.46,0,10.34-6.64,15.29-13.73,15.29Zm9.53-1.16c6.46,0,12.48-4.64,12.48-14.13s-6-14.3-12.48-14.3h-8.29v28.43Z"/><path class="cls-6" d="M273.55,516.8v0c.09,2.9,1.42,3.83,4.63,3.88h11.37v1.25H278.14c-4-.09-5.75-1.3-5.84-5.08V491.13h17.25v1.24h-16v13.29h14.93v1.24H273.55Z"/><path class="cls-6" d="M322.34,519.29a184.5,184.5,0,0,0-12.61-26.56l-2.85,29.15h-1.25l3-30.75h1.73a182.07,182.07,0,0,1,12.93,27,183,183,0,0,1,12.92-27h1.74l3,30.75h-1.24l-2.86-29.15a184.5,184.5,0,0,0-12.61,26.56Z"/><path class="cls-6" d="M369.13,521.88c-1.12-3.39-2.19-6.64-3.35-9.94H350c-1.16,3.3-2.27,6.55-3.34,9.94h-1.34a221.17,221.17,0,0,1,12-30.75h1.16a217.92,217.92,0,0,1,12,30.75Zm-18.76-11.06h15a187.78,187.78,0,0,0-7.48-18C354.87,499.15,352.51,505,350.37,510.82Z"/><path class="cls-6" d="M380.35,521.88V492.37H370v-1.24h22v1.24H381.65v29.51Z"/><path class="cls-6" d="M398.26,516.8v0c.09,2.9,1.43,3.83,4.64,3.88h11.36v1.25H402.85c-4-.09-5.74-1.3-5.83-5.08V491.13h17.24v1.24h-16v13.29h14.93v1.24H398.26Z"/><path class="cls-6" d="M441.67,521.88h-1.43c-1.91-3.7-6.91-13.37-11.85-13.68h-6v13.68h-1.25V491.17h11.58c4.46,0,8.07,2.81,8.07,8.34,0,6-3.61,8.73-9.4,8.64C435.79,510.24,440,518.58,441.67,521.88Zm-2.14-22.37c0-4.68-3-7.09-6.82-7.09H422.42V506.9h9C436.72,506.9,439.53,504.63,439.53,499.51Z"/><path class="cls-6" d="M448,521.88V491.13h1.25v30.75Z"/><path class="cls-6" d="M478.65,521.88c-1.11-3.39-2.18-6.64-3.34-9.94H459.53c-1.15,3.3-2.27,6.55-3.34,9.94h-1.34a221.17,221.17,0,0,1,12-30.75H468a219.25,219.25,0,0,1,12,30.75Zm-18.76-11.06h15a190.56,190.56,0,0,0-7.49-18C464.39,499.15,462,505,459.89,510.82Z"/><path class="cls-6" d="M503.11,521.88H491.3c-4-.09-5.75-1.3-5.84-5.08V491.13h1.25V516.8c.09,2.85,1.43,3.78,4.59,3.83h11.81Z"/><path class="cls-6" d="M519.91,516.8v0c.09,2.9,1.42,3.83,4.63,3.88h11.37v1.25H524.5c-4-.09-5.75-1.3-5.84-5.08V491.13h17.25v1.24h-16v13.29h14.93v1.24H519.91Z"/><path class="cls-6" d="M549.85,521.12c5.39,0,9.18-1.61,9.49-6.64.18-4.28-4.27-5.75-10.42-7.76l-2-.62c-6.6-2.18-6.15-7.4-6.15-7.4.17-4.9,3.83-8,11.23-8a24.59,24.59,0,0,1,7.17,1.34v1.29a24.1,24.1,0,0,0-7.17-1.38c-6.6,0-9.81,2.67-10,6.86,0,0-.35,4.28,5.31,6.15l1.83.54c6.72,2.18,11.62,3.78,11.4,9.09-.35,5.92-4.68,7.8-10.74,7.8a26.56,26.56,0,0,1-9-2V519A27.31,27.31,0,0,0,549.85,521.12Z"/><path class="cls-6" d="M588.31,521.65a35.72,35.72,0,0,1-7.49.72c-7.84,0-15.51-5.4-15.51-15.78,0-10.2,7.22-15.91,15.38-15.91a37.28,37.28,0,0,1,7.62.67v1.29a39.37,39.37,0,0,0-7.62-.71c-7.49,0-14.13,5.26-14.13,14.66,0,9.58,7,14.53,14.26,14.53a29.17,29.17,0,0,0,7.49-.8Z"/><path class="cls-6" d="M591.33,506.63c0-11.58,8-15.95,15.15-15.95s15.2,4.37,15.2,15.95c0,9.63-6.06,15.74-15.24,15.74S591.33,516.26,591.33,506.63Zm29.15,0c0-10.33-7.35-14.79-14-14.79s-13.94,4.46-13.94,14.79c0,8.56,5.57,14.58,13.9,14.58S620.48,515.19,620.48,506.63Z"/><path class="cls-6" d="M646.23,521.88H634.42c-4-.09-5.75-1.3-5.84-5.08V491.13h1.25V516.8c.09,2.85,1.43,3.78,4.59,3.83h11.81Z"/><path class="cls-6" d="M672.17,521.88c-1.12-3.39-2.19-6.64-3.35-9.94H653.05c-1.16,3.3-2.28,6.55-3.35,9.94h-1.33a221.06,221.06,0,0,1,12-30.75h1.16a218,218,0,0,1,12,30.75ZM653.4,510.82h15a190.37,190.37,0,0,0-7.48-18C657.91,499.15,655.54,505,653.4,510.82Z"/><path class="cls-6" d="M699.61,521.88h-1.42c-1.92-3.7-6.91-13.37-11.86-13.68h-6v13.68h-1.25V491.17H690.7c4.46,0,8.07,2.81,8.07,8.34,0,6-3.61,8.73-9.41,8.64C693.73,510.24,697.92,518.58,699.61,521.88Zm-2.14-22.37c0-4.68-3-7.09-6.81-7.09h-10.3V506.9h9C694.67,506.9,697.47,504.63,697.47,499.51Z"/></svg>